<?xml version="1.0" encoding="utf-8"?>
<!-- Generator: Adobe Illustrator 24.2.0, SVG Export Plug-In . SVG Version: 6.00 Build 0)  -->
<svg version="1.1" id="Layer_1" xmlns:sketch="http://www.bohemiancoding.com/sketch/ns"
	 xmlns="http://www.w3.org/2000/svg" xmlns:xlink="http://www.w3.org/1999/xlink" x="0px" y="0px" viewBox="0 0 400 400"
	 style="enable-background:new 0 0 400 400;" xml:space="preserve">
<style type="text/css">
	.st0{fill-rule:evenodd;clip-rule:evenodd;fill:#4583EC;}
</style>
<desc>Created with Sketch.</desc>
<g sketch:type="MSPage">
	<g sketch:type="MSArtboardGroup">
		<path sketch:type="MSShapeGroup" class="st0" d="M98,323.5c-24.7-25.2-41.8-57.8-47.7-94.1L2,201.5l48.1-27.8
			C63.2,90,135.6,26,223,26c96.7,0,175,78.4,175,175c0,88.2-65.2,161.1-150,173.2V176c0-41.4-33.6-75-75-75s-75,33.6-75,75V323.5
			L98,323.5z M173,201c13.8,0,25-11.2,25-25s-11.2-25-25-25s-25,11.2-25,25S159.2,201,173,201L173,201z"/>
	</g>
</g>
</svg>
