<?xml version="1.0" encoding="UTF-8"?>
<svg version="1.1" viewBox="0 0 400 400" xmlns="http://www.w3.org/2000/svg">
<g fill="none" fill-rule="evenodd">
<g fill="#000">
<path d="m98.001 323.48c-24.662-25.167-41.784-57.751-47.711-94.095l-48.29-27.88 48.114-27.778c13.1-83.694 85.516-147.72 172.89-147.72 96.65 0 175 78.351 175 175 0 88.162-65.193 161.1-150 173.23v-198.23c0-41.425-33.579-75.002-75-75.002-41.431 0-75 33.579-75 75.002v147.47zm75-122.48c13.807 0 25-11.193 25-25 0-13.807-11.193-25-25-25-13.807 0-25 11.193-25 25 0 13.807 11.193 25 25 25z"/>
</g>
</g>
</svg>
