<?xml version="1.0" encoding="UTF-8"?>
<svg enable-background="new 0 0 400 400" version="1.1" viewBox="0 0 400 400" xml:space="preserve" xmlns="http://www.w3.org/2000/svg">
<style type="text/css">
	.st0{fill-rule:evenodd;clip-rule:evenodd;fill:#4583EC;}
</style>
<desc>Created with Sketch.</desc>

	
		<path class="st0" d="m98 323.5c-24.7-25.2-41.8-57.8-47.7-94.1l-48.3-27.9 48.1-27.8c13.1-83.7 85.5-147.7 172.9-147.7 96.7 0 175 78.4 175 175 0 88.2-65.2 161.1-150 173.2v-198.2c0-41.4-33.6-75-75-75s-75 33.6-75 75v147.5zm75-122.5c13.8 0 25-11.2 25-25s-11.2-25-25-25-25 11.2-25 25 11.2 25 25 25z"/>
	

</svg>