<svg xmlns="http://www.w3.org/2000/svg" xmlns:xlink="http://www.w3.org/1999/xlink" xmlns:sketch="http://www.bohemiancoding.com/sketch/ns" viewBox="0 0 400 400" version="1.1" x="0px" y="0px"><title>Artboard 5 Copy</title><desc>Created with Sketch.</desc><g stroke="none" stroke-width="1" fill="none" fill-rule="evenodd" sketch:type="MSPage"><g sketch:type="MSArtboardGroup" fill="#000000"><path d="M98.0006154,323.476475 C73.3386931,298.309228 56.2165957,265.725663 50.2897915,229.381249 L2,201.501125 L50.1137554,173.722636 C63.2135655,90.0282806 135.630188,26 223.001417,26 C319.651868,26 398.002539,104.350671 398.002539,201.001122 C398.002539,289.163485 332.809474,362.099192 248.001577,374.230011 L248.001577,176.002211 C248.001577,134.577471 214.422718,101.000481 173.001096,101.000481 C131.570367,101.000481 98.0006154,134.579899 98.0006154,176.002211 L98.0006154,323.476475 L98.0006154,323.476475 Z M173.001096,201.001122 C186.808304,201.001122 198.001257,189.808169 198.001257,176.000962 C198.001257,162.193754 186.808304,151.000801 173.001096,151.000801 C159.193889,151.000801 148.000936,162.193754 148.000936,176.000962 C148.000936,189.808169 159.193889,201.001122 173.001096,201.001122 L173.001096,201.001122 Z" sketch:type="MSShapeGroup"></path></g></g></svg>